# xmcd CD database file
#
# Track frame offsets:
#	150
#	7698
#	32923
#
# Disc length: 713 seconds
#
# Revision: 2
# Processed by: cddbd v1.5.2PL0 Copyright (c) Steve Scherf et al.
# Submitted via: CDex 1.70beta3
#
DISCID=1402c703
DTITLE=ムック - 赤盤
DYEAR=2001
DGENRE=Rock
TTITLE0=暗い曲
TTITLE1=スイミン
TTITLE2=五月雨
EXTD=YEAR: 2001
EXTT0=
EXTT1=
EXTT2=
PLAYORDER=
